# xmcd
#
# Track frame offsets:
#	150
#	17104
#	39107
#	60972
#	75813
#	96358
#	129878
#	160352
#	186846
#	206443
#	232930
#	268334
#	287704
#	313468
#	331273
#
# Disc length: 4646 seconds
#
# Revision: 0
# Processed by: cddbd v1.5.2PL0 Copyright (c) Steve Scherf et al.
# Submitted via: dBpowerAMP V4.0
#
DISCID=c312240f
DTITLE=Novo Pokolenie - Predi Vsichko
DYEAR=1900
DGENRE=religious
TTITLE0=V Svetilishteto
TTITLE1=Boze Dobyr Si
TTITLE2=Vsichko Za Teb E
TTITLE3=Vyrhoven
TTITLE4=Otvorena Vrata
TTITLE5=Iskam Da Te Poznavam
TTITLE6=Pomazi Me Dnes
TTITLE7=Predi Vsichko
TTITLE8=Nad Vsichko Si
TTITLE9=S Vsichko V Men
TTITLE10=Tuk Sym Da Te Hvalya
TTITLE11=Ti Si Moya Bog
TTITLE12=Ti Si Bog
TTITLE13=Vikyt Na Tzarya
TTITLE14=Pytyat
EXTD=
EXTT0=
EXTT1=
EXTT2=
EXTT3=
EXTT4=
EXTT5=
EXTT6=
EXTT7=
EXTT8=
EXTT9=
EXTT10=
EXTT11=
EXTT12=
EXTT13=
EXTT14=
PLAYORDER=
